<svg width="150" height="45" viewBox="0 0 150 45" fill="none" xmlns="http://www.w3.org/2000/svg">
<path d="M24.0725 27.8824C23.6408 28.1692 23.1769 28.3458 22.6622 28.4238C22.1497 28.5041 21.6535 28.4881 21.141 28.4881H10.6986C10.1862 28.4881 9.68993 28.5041 9.1775 28.4238C8.66508 28.3435 8.20112 28.1692 7.76718 27.8824C6.91775 27.2928 6.40532 26.3362 6.40532 25.3153C6.40532 24.2784 6.91775 23.3218 7.76718 22.7483C8.19882 22.4615 8.66277 22.2871 9.1775 22.2069C9.68993 22.1266 10.1862 22.1426 10.6986 22.1426H21.1433C21.6558 22.1426 22.152 22.1266 22.6645 22.2069C23.1769 22.2871 23.6408 22.4615 24.0748 22.7483C24.9242 23.3378 25.4366 24.2945 25.4366 25.3153C25.4343 26.3523 24.9219 27.3089 24.0725 27.8824ZM28.2688 17.9146C27.147 17.0222 25.866 16.4005 24.4741 16.0656C23.6732 15.8752 22.8722 15.7949 22.0551 15.7628C21.4457 15.7467 20.8387 15.7467 20.2293 15.7467H11.6127C11.0033 15.7467 10.3962 15.7467 9.78687 15.7628C8.96976 15.7949 8.16881 15.8752 7.36785 16.0656C5.97369 16.4005 4.69262 17.0222 3.57082 17.9146C1.31338 19.7178 0 22.4431 0 25.3153C0 28.2013 1.31338 30.9129 3.57082 32.7138C4.69262 33.6062 5.97369 34.2302 7.36555 34.5628C8.1665 34.7532 8.96745 34.8335 9.78457 34.8656C10.3939 34.8817 11.001 34.8817 11.6104 34.8817H20.227C20.8363 34.8817 21.4457 34.8817 22.0528 34.8656C22.8699 34.8335 23.6708 34.7532 24.4718 34.5628C25.866 34.2279 27.147 33.6062 28.2665 32.7138C30.5263 30.9106 31.8373 28.1852 31.8397 25.313C31.842 22.4271 30.5286 19.7178 28.2688 17.9146Z" fill="black"/>
<path d="M136.919 28.2357L134.17 31.0368C136.158 33.2781 139.073 34.3999 142.351 34.3999C146.69 34.3999 150 32.2572 150 28.761C150 25.4966 147.683 23.7163 144.006 23.3539L141.951 23.1566C140.262 22.9914 139.17 22.4317 139.17 21.4429C139.17 20.3876 140.296 19.7935 142.217 19.7935C144.303 19.7935 145.859 20.6514 146.886 21.904L149.603 19.1351C147.913 17.1231 145.33 16.1665 142.415 16.1665C137.877 16.1665 134.997 18.4078 134.997 21.7067C134.997 24.7074 137.182 26.6849 141.09 27.0497L143.177 27.2469C144.867 27.4121 145.76 28.0063 145.76 28.995C145.76 30.2155 144.368 30.7753 142.581 30.7753C140.296 30.773 138.311 29.8507 136.919 28.2357ZM126.585 34.104H130.858V16.4303H126.422V26.5863C126.422 28.8941 124.767 30.4105 122.613 30.4105C120.494 30.4105 119.07 28.8276 119.07 26.5863V16.4303H114.631V27.2791C114.631 31.5988 117.876 34.3678 121.586 34.3678C123.672 34.3678 125.461 33.4112 126.588 32.1907V34.104H126.585ZM109.696 10H105.257V34.104H109.696V10ZM95.886 34.104H100.159V16.4303H95.7198V26.5863C95.7198 28.8941 94.0648 30.4105 91.9112 30.4105C89.7923 30.4105 88.3681 28.8276 88.3681 26.5863V16.4303H83.9294V27.2791C83.9294 31.5988 87.1748 34.3678 90.8841 34.3678C92.9707 34.3678 94.7596 33.4112 95.886 32.1907V34.104ZM77.8703 28.6303C77.0093 29.619 75.7514 30.3118 74.094 30.3118C71.1464 30.3118 69.2583 28.1692 69.2583 25.2993C69.2583 22.3651 71.1464 20.2202 74.094 20.2202C75.749 20.2202 77.0093 20.913 77.8703 21.9683L80.9172 18.9355C79.3268 17.2218 76.9424 16.1321 74.1287 16.1321C68.7644 16.1321 64.8219 20.055 64.8219 25.2649C64.8219 30.4747 68.762 34.3976 74.1287 34.3976C76.9101 34.3976 79.3291 33.3102 80.9172 31.6287L77.8703 28.6303ZM52.6991 30.3118C49.7515 30.3118 47.8311 28.1692 47.8311 25.2993C47.8311 22.3651 49.7515 20.2202 52.6991 20.2202C55.6467 20.2202 57.5672 22.3628 57.5672 25.2993C57.5695 28.1692 55.6467 30.3118 52.6991 30.3118ZM52.6991 34.3999C58.0634 34.3999 62.0059 30.477 62.0059 25.2672C62.0059 20.0573 58.0657 16.1344 52.6991 16.1344C47.3325 16.1344 43.3947 20.0573 43.3947 25.2672C43.3947 30.477 47.3348 34.3999 52.6991 34.3999Z" fill="black"/>
</svg>
